<mxfile host="app.diagrams.net" agent="Mozilla/5.0 (Windows NT 10.0; Win64; x64) AppleWebKit/537.36 (KHTML, like Gecko) Chrome/139.0.0.0 Safari/537.36" version="28.2.1">
  <diagram name="PÃ¡gina-1" id="WtwRyKNxUO1I41uRE4uz">
    <mxGraphModel dx="613" dy="315" grid="1" gridSize="10" guides="1" tooltips="1" connect="1" arrows="1" fold="1" page="1" pageScale="1" pageWidth="850" pageHeight="1100" math="0" shadow="0">
      <root>
        <mxCell id="0" />
        <mxCell id="1" parent="0" />
        <mxCell id="44f62mFtsV3IwGyWBhd3-5" style="edgeStyle=orthogonalEdgeStyle;rounded=0;orthogonalLoop=1;jettySize=auto;html=1;entryX=0.5;entryY=0;entryDx=0;entryDy=0;" parent="1" source="44f62mFtsV3IwGyWBhd3-3" target="44f62mFtsV3IwGyWBhd3-10" edge="1">
          <mxGeometry relative="1" as="geometry">
            <mxPoint x="180" y="90" as="targetPoint" />
          </mxGeometry>
        </mxCell>
        <mxCell id="44f62mFtsV3IwGyWBhd3-13" value="" style="edgeStyle=orthogonalEdgeStyle;rounded=0;orthogonalLoop=1;jettySize=auto;html=1;" parent="1" source="44f62mFtsV3IwGyWBhd3-3" target="44f62mFtsV3IwGyWBhd3-12" edge="1">
          <mxGeometry relative="1" as="geometry" />
        </mxCell>
        <mxCell id="44f62mFtsV3IwGyWBhd3-3" value="PAGINA PRINCIPAL" style="rounded=0;whiteSpace=wrap;html=1;" parent="1" vertex="1">
          <mxGeometry x="365" y="20" width="120" height="60" as="geometry" />
        </mxCell>
        <mxCell id="44f62mFtsV3IwGyWBhd3-6" value="" style="rounded=0;html=1;align=center;whiteSpace=wrap;labelPosition=center;verticalLabelPosition=middle;verticalAlign=middle;" parent="1" vertex="1">
          <mxGeometry x="95" y="190" width="170" height="210" as="geometry" />
        </mxCell>
        <mxCell id="44f62mFtsV3IwGyWBhd3-11" style="edgeStyle=orthogonalEdgeStyle;rounded=0;orthogonalLoop=1;jettySize=auto;html=1;exitX=0.5;exitY=1;exitDx=0;exitDy=0;entryX=0.5;entryY=0;entryDx=0;entryDy=0;" parent="1" source="44f62mFtsV3IwGyWBhd3-10" target="44f62mFtsV3IwGyWBhd3-6" edge="1">
          <mxGeometry relative="1" as="geometry" />
        </mxCell>
        <mxCell id="44f62mFtsV3IwGyWBhd3-10" value="ACCESSO PUBLICO" style="rhombus;whiteSpace=wrap;html=1;" parent="1" vertex="1">
          <mxGeometry x="140" y="90" width="80" height="80" as="geometry" />
        </mxCell>
        <mxCell id="44f62mFtsV3IwGyWBhd3-15" style="edgeStyle=orthogonalEdgeStyle;rounded=0;orthogonalLoop=1;jettySize=auto;html=1;exitX=1;exitY=0.5;exitDx=0;exitDy=0;" parent="1" source="44f62mFtsV3IwGyWBhd3-12" target="44f62mFtsV3IwGyWBhd3-14" edge="1">
          <mxGeometry relative="1" as="geometry" />
        </mxCell>
        <mxCell id="44f62mFtsV3IwGyWBhd3-17" style="edgeStyle=orthogonalEdgeStyle;rounded=0;orthogonalLoop=1;jettySize=auto;html=1;entryX=0.5;entryY=0;entryDx=0;entryDy=0;exitX=1;exitY=0.5;exitDx=0;exitDy=0;" parent="1" source="44f62mFtsV3IwGyWBhd3-12" target="44f62mFtsV3IwGyWBhd3-16" edge="1">
          <mxGeometry relative="1" as="geometry" />
        </mxCell>
        <mxCell id="44f62mFtsV3IwGyWBhd3-19" style="edgeStyle=orthogonalEdgeStyle;rounded=0;orthogonalLoop=1;jettySize=auto;html=1;exitX=0.5;exitY=1;exitDx=0;exitDy=0;entryX=0.5;entryY=0;entryDx=0;entryDy=0;" parent="1" source="44f62mFtsV3IwGyWBhd3-12" target="44f62mFtsV3IwGyWBhd3-18" edge="1">
          <mxGeometry relative="1" as="geometry" />
        </mxCell>
        <mxCell id="44f62mFtsV3IwGyWBhd3-12" value="SELECCION DE PERFIL" style="rhombus;whiteSpace=wrap;html=1;" parent="1" vertex="1">
          <mxGeometry x="353" y="120" width="145" height="80" as="geometry" />
        </mxCell>
        <mxCell id="44f62mFtsV3IwGyWBhd3-21" style="edgeStyle=orthogonalEdgeStyle;rounded=0;orthogonalLoop=1;jettySize=auto;html=1;exitX=0.5;exitY=1;exitDx=0;exitDy=0;entryX=0.5;entryY=0;entryDx=0;entryDy=0;" parent="1" source="44f62mFtsV3IwGyWBhd3-14" target="44f62mFtsV3IwGyWBhd3-20" edge="1">
          <mxGeometry relative="1" as="geometry" />
        </mxCell>
        <mxCell id="44f62mFtsV3IwGyWBhd3-14" value="ESTUDIANTE" style="rhombus;whiteSpace=wrap;html=1;" parent="1" vertex="1">
          <mxGeometry x="640" y="120" width="100" height="80" as="geometry" />
        </mxCell>
        <mxCell id="44f62mFtsV3IwGyWBhd3-23" style="edgeStyle=orthogonalEdgeStyle;rounded=0;orthogonalLoop=1;jettySize=auto;html=1;exitX=0.5;exitY=1;exitDx=0;exitDy=0;entryX=0.5;entryY=0;entryDx=0;entryDy=0;" parent="1" source="44f62mFtsV3IwGyWBhd3-16" target="44f62mFtsV3IwGyWBhd3-22" edge="1">
          <mxGeometry relative="1" as="geometry" />
        </mxCell>
        <mxCell id="44f62mFtsV3IwGyWBhd3-16" value="EGRESADO" style="rhombus;whiteSpace=wrap;html=1;" parent="1" vertex="1">
          <mxGeometry x="490" y="200" width="100" height="80" as="geometry" />
        </mxCell>
        <mxCell id="44f62mFtsV3IwGyWBhd3-25" style="edgeStyle=orthogonalEdgeStyle;rounded=0;orthogonalLoop=1;jettySize=auto;html=1;exitX=0.5;exitY=1;exitDx=0;exitDy=0;" parent="1" source="44f62mFtsV3IwGyWBhd3-18" target="44f62mFtsV3IwGyWBhd3-24" edge="1">
          <mxGeometry relative="1" as="geometry" />
        </mxCell>
        <mxCell id="44f62mFtsV3IwGyWBhd3-18" value="PERSONAL" style="rhombus;whiteSpace=wrap;html=1;" parent="1" vertex="1">
          <mxGeometry x="310" y="240" width="100" height="80" as="geometry" />
        </mxCell>
        <mxCell id="44f62mFtsV3IwGyWBhd3-20" value="INICIAR SESSION&lt;br&gt;(correo instutucional)" style="rounded=0;whiteSpace=wrap;html=1;" parent="1" vertex="1">
          <mxGeometry x="630" y="225" width="120" height="30" as="geometry" />
        </mxCell>
        <mxCell id="44f62mFtsV3IwGyWBhd3-22" value="INICIAR SESSION&lt;br&gt;(correo personal)" style="rounded=0;whiteSpace=wrap;html=1;" parent="1" vertex="1">
          <mxGeometry x="480" y="300" width="120" height="30" as="geometry" />
        </mxCell>
        <mxCell id="44f62mFtsV3IwGyWBhd3-24" value="INICIAR SESSION&lt;br&gt;(correo professional)" style="rounded=0;whiteSpace=wrap;html=1;" parent="1" vertex="1">
          <mxGeometry x="300" y="350" width="120" height="30" as="geometry" />
        </mxCell>
        <mxCell id="44f62mFtsV3IwGyWBhd3-26" value="" style="rounded=0;whiteSpace=wrap;html=1;" parent="1" vertex="1">
          <mxGeometry x="300" y="410" width="120" height="60" as="geometry" />
        </mxCell>
        <mxCell id="44f62mFtsV3IwGyWBhd3-27" value="PAGINA DE CONTACTO" style="rounded=0;whiteSpace=wrap;html=1;" parent="1" vertex="1">
          <mxGeometry x="120" y="225" width="120" height="60" as="geometry" />
        </mxCell>
        <mxCell id="44f62mFtsV3IwGyWBhd3-28" value="SERVICIOS" style="rounded=0;whiteSpace=wrap;html=1;strokeColor=default;" parent="1" vertex="1">
          <mxGeometry x="95" y="190" width="170" height="20" as="geometry" />
        </mxCell>
        <mxCell id="vNSIG7baNb9c995dlm1A-1" value="PAGINA DE AYUDA" style="rounded=0;whiteSpace=wrap;html=1;" vertex="1" parent="1">
          <mxGeometry x="120" y="300" width="120" height="60" as="geometry" />
        </mxCell>
      </root>
    </mxGraphModel>
  </diagram>
</mxfile>
